<svg xmlns="http://www.w3.org/2000/svg" xmlns:xlink="http://www.w3.org/1999/xlink" width="500" zoomAndPan="magnify" viewBox="0 0 375 374.999991" height="500" preserveAspectRatio="xMidYMid meet" version="1.0"><defs><clipPath id="e21beb831a"><path d="M 3.265625 3.265625 L 371.515625 3.265625 L 371.515625 371.515625 L 3.265625 371.515625 Z M 3.265625 3.265625 " clip-rule="nonzero"/></clipPath></defs><g clip-path="url(#e21beb831a)"><path fill="#599474" d="M 353.101562 162.839844 L 353.101562 21.679688 C 353.101562 21.074219 353.074219 20.472656 353.015625 19.875 C 352.957031 19.273438 352.867188 18.675781 352.75 18.085938 C 352.632812 17.496094 352.484375 16.910156 352.308594 16.332031 C 352.136719 15.757812 351.933594 15.1875 351.703125 14.632812 C 351.472656 14.074219 351.214844 13.53125 350.929688 13 C 350.644531 12.46875 350.335938 11.949219 350 11.449219 C 349.664062 10.949219 349.304688 10.464844 348.921875 9.996094 C 348.542969 9.53125 348.136719 9.085938 347.710938 8.660156 C 347.285156 8.230469 346.835938 7.828125 346.371094 7.445312 C 345.90625 7.0625 345.421875 6.703125 344.921875 6.367188 C 344.417969 6.035156 343.902344 5.722656 343.371094 5.441406 C 342.839844 5.15625 342.292969 4.898438 341.738281 4.667969 C 341.179688 4.4375 340.613281 4.234375 340.035156 4.058594 C 339.457031 3.882812 338.875 3.738281 338.28125 3.621094 C 337.691406 3.5 337.09375 3.414062 336.496094 3.355469 C 335.894531 3.296875 335.292969 3.265625 334.691406 3.265625 L 181.253906 3.265625 C 180.648438 3.265625 180.046875 3.296875 179.449219 3.355469 C 178.847656 3.414062 178.253906 3.5 177.660156 3.621094 C 177.070312 3.738281 176.484375 3.882812 175.910156 4.058594 C 175.332031 4.234375 174.765625 4.4375 174.207031 4.667969 C 173.648438 4.898438 173.105469 5.15625 172.574219 5.441406 C 172.042969 5.722656 171.523438 6.035156 171.023438 6.367188 C 170.523438 6.703125 170.039062 7.0625 169.574219 7.445312 C 169.105469 7.828125 168.660156 8.230469 168.234375 8.660156 C 167.808594 9.085938 167.402344 9.53125 167.019531 9.996094 C 166.636719 10.464844 166.277344 10.949219 165.945312 11.449219 C 165.609375 11.949219 165.300781 12.46875 165.015625 13 C 164.730469 13.53125 164.472656 14.074219 164.242188 14.632812 C 164.011719 15.1875 163.808594 15.757812 163.632812 16.332031 C 163.457031 16.910156 163.3125 17.496094 163.195312 18.085938 C 163.078125 18.675781 162.988281 19.273438 162.929688 19.875 C 162.871094 20.472656 162.839844 21.074219 162.839844 21.679688 L 40.089844 21.679688 C 39.488281 21.679688 38.886719 21.707031 38.285156 21.765625 C 37.6875 21.824219 37.089844 21.914062 36.5 22.03125 C 35.90625 22.148438 35.324219 22.296875 34.746094 22.472656 C 34.167969 22.644531 33.601562 22.847656 33.042969 23.078125 C 32.488281 23.3125 31.941406 23.566406 31.410156 23.851562 C 30.878906 24.136719 30.363281 24.445312 29.863281 24.78125 C 29.359375 25.117188 28.875 25.476562 28.410156 25.859375 C 27.945312 26.242188 27.496094 26.644531 27.070312 27.070312 C 26.644531 27.496094 26.242188 27.945312 25.859375 28.410156 C 25.476562 28.875 25.117188 29.359375 24.78125 29.859375 C 24.445312 30.363281 24.136719 30.878906 23.851562 31.410156 C 23.566406 31.941406 23.3125 32.488281 23.078125 33.042969 C 22.847656 33.601562 22.644531 34.167969 22.472656 34.746094 C 22.296875 35.324219 22.148438 35.90625 22.03125 36.5 C 21.914062 37.089844 21.824219 37.6875 21.765625 38.285156 C 21.707031 38.886719 21.679688 39.488281 21.679688 40.089844 L 21.679688 119.878906 C 21.074219 119.878906 20.472656 119.90625 19.875 119.96875 C 19.273438 120.027344 18.675781 120.113281 18.085938 120.230469 C 17.496094 120.351562 16.910156 120.496094 16.332031 120.671875 C 15.757812 120.847656 15.1875 121.050781 14.632812 121.28125 C 14.074219 121.511719 13.53125 121.769531 13 122.050781 C 12.46875 122.335938 11.949219 122.644531 11.449219 122.980469 C 10.949219 123.316406 10.464844 123.675781 9.996094 124.058594 C 9.53125 124.441406 9.085938 124.84375 8.660156 125.269531 C 8.230469 125.699219 7.828125 126.144531 7.445312 126.609375 C 7.0625 127.074219 6.703125 127.558594 6.367188 128.0625 C 6.035156 128.5625 5.722656 129.078125 5.441406 129.609375 C 5.15625 130.144531 4.898438 130.6875 4.667969 131.246094 C 4.4375 131.800781 4.234375 132.367188 4.058594 132.945312 C 3.882812 133.523438 3.738281 134.105469 3.621094 134.699219 C 3.5 135.289062 3.414062 135.886719 3.355469 136.484375 C 3.296875 137.085938 3.265625 137.6875 3.265625 138.289062 L 3.265625 353.101562 C 3.265625 353.707031 3.296875 354.308594 3.355469 354.90625 C 3.414062 355.507812 3.5 356.105469 3.621094 356.695312 C 3.738281 357.285156 3.882812 357.871094 4.058594 358.449219 C 4.234375 359.023438 4.4375 359.59375 4.667969 360.148438 C 4.898438 360.707031 5.15625 361.25 5.441406 361.78125 C 5.722656 362.316406 6.035156 362.832031 6.367188 363.332031 C 6.703125 363.835938 7.0625 364.316406 7.445312 364.785156 C 7.828125 365.25 8.230469 365.695312 8.660156 366.121094 C 9.085938 366.550781 9.53125 366.953125 9.996094 367.335938 C 10.464844 367.71875 10.949219 368.078125 11.449219 368.414062 C 11.949219 368.746094 12.46875 369.058594 13 369.339844 C 13.53125 369.625 14.074219 369.882812 14.632812 370.113281 C 15.1875 370.34375 15.757812 370.546875 16.332031 370.722656 C 16.910156 370.898438 17.496094 371.042969 18.085938 371.160156 C 18.675781 371.28125 19.273438 371.367188 19.875 371.425781 C 20.472656 371.484375 21.074219 371.515625 21.679688 371.515625 L 353.101562 371.515625 C 353.707031 371.515625 354.308594 371.484375 354.90625 371.425781 C 355.507812 371.367188 356.105469 371.28125 356.695312 371.160156 C 357.285156 371.042969 357.871094 370.898438 358.449219 370.722656 C 359.023438 370.546875 359.59375 370.34375 360.148438 370.113281 C 360.707031 369.882812 361.25 369.625 361.78125 369.339844 C 362.316406 369.058594 362.832031 368.746094 363.332031 368.414062 C 363.835938 368.078125 364.316406 367.71875 364.785156 367.335938 C 365.25 366.953125 365.695312 366.550781 366.121094 366.121094 C 366.550781 365.695312 366.953125 365.25 367.335938 364.785156 C 367.71875 364.316406 368.078125 363.835938 368.414062 363.332031 C 368.746094 362.832031 369.058594 362.316406 369.339844 361.78125 C 369.625 361.25 369.882812 360.707031 370.113281 360.148438 C 370.34375 359.59375 370.546875 359.023438 370.722656 358.449219 C 370.898438 357.871094 371.042969 357.285156 371.160156 356.695312 C 371.28125 356.105469 371.367188 355.507812 371.425781 354.90625 C 371.484375 354.308594 371.515625 353.707031 371.515625 353.101562 L 371.515625 181.253906 C 371.515625 180.648438 371.484375 180.046875 371.425781 179.449219 C 371.367188 178.847656 371.28125 178.253906 371.160156 177.660156 C 371.042969 177.070312 370.898438 176.484375 370.722656 175.910156 C 370.546875 175.332031 370.34375 174.765625 370.113281 174.207031 C 369.882812 173.648438 369.625 173.105469 369.339844 172.574219 C 369.058594 172.042969 368.746094 171.523438 368.414062 171.023438 C 368.078125 170.523438 367.71875 170.039062 367.335938 169.574219 C 366.953125 169.105469 366.550781 168.660156 366.121094 168.234375 C 365.695312 167.808594 365.25 167.402344 364.785156 167.019531 C 364.316406 166.636719 363.835938 166.277344 363.332031 165.945312 C 362.832031 165.609375 362.316406 165.300781 361.78125 165.015625 C 361.25 164.730469 360.707031 164.472656 360.148438 164.242188 C 359.59375 164.011719 359.023438 163.808594 358.449219 163.632812 C 357.871094 163.457031 357.285156 163.3125 356.695312 163.195312 C 356.105469 163.078125 355.507812 162.988281 354.90625 162.929688 C 354.308594 162.871094 353.707031 162.839844 353.101562 162.839844 Z M 33.953125 40.089844 C 33.953125 39.6875 33.992188 39.289062 34.070312 38.894531 C 34.148438 38.5 34.265625 38.113281 34.421875 37.742188 C 34.574219 37.371094 34.765625 37.015625 34.988281 36.679688 C 35.210938 36.347656 35.464844 36.035156 35.75 35.75 C 36.035156 35.464844 36.347656 35.210938 36.679688 34.988281 C 37.015625 34.765625 37.371094 34.574219 37.742188 34.421875 C 38.113281 34.265625 38.5 34.148438 38.894531 34.070312 C 39.289062 33.992188 39.6875 33.953125 40.089844 33.953125 L 162.839844 33.953125 L 162.839844 46.226562 L 107.601562 46.226562 C 107 46.226562 106.398438 46.257812 105.796875 46.316406 C 105.199219 46.375 104.601562 46.464844 104.011719 46.582031 C 103.417969 46.699219 102.835938 46.847656 102.257812 47.019531 C 101.679688 47.195312 101.113281 47.398438 100.558594 47.628906 C 100 47.859375 99.457031 48.117188 98.921875 48.402344 C 98.390625 48.6875 97.875 48.996094 97.375 49.332031 C 96.871094 49.667969 96.386719 50.023438 95.921875 50.40625 C 95.457031 50.789062 95.011719 51.195312 94.582031 51.621094 C 94.15625 52.046875 93.753906 52.492188 93.371094 52.960938 C 92.988281 53.425781 92.628906 53.910156 92.292969 54.410156 C 91.957031 54.914062 91.648438 55.429688 91.363281 55.960938 C 91.082031 56.492188 90.824219 57.039062 90.59375 57.59375 C 90.363281 58.152344 90.160156 58.71875 89.984375 59.296875 C 89.808594 59.871094 89.664062 60.457031 89.542969 61.046875 C 89.425781 61.640625 89.339844 62.234375 89.28125 62.835938 C 89.21875 63.4375 89.191406 64.039062 89.191406 64.640625 L 89.191406 119.878906 L 33.953125 119.878906 Z M 101.464844 156.703125 C 101.464844 157.105469 101.425781 157.503906 101.347656 157.902344 C 101.269531 158.296875 101.152344 158.679688 101 159.050781 C 100.84375 159.425781 100.65625 159.777344 100.429688 160.113281 C 100.207031 160.449219 99.953125 160.757812 99.667969 161.042969 C 99.382812 161.328125 99.074219 161.582031 98.738281 161.804688 C 98.402344 162.03125 98.050781 162.21875 97.675781 162.375 C 97.304688 162.527344 96.921875 162.644531 96.527344 162.722656 C 96.128906 162.800781 95.730469 162.839844 95.328125 162.839844 L 33.953125 162.839844 C 33.550781 162.839844 33.152344 162.800781 32.757812 162.722656 C 32.359375 162.644531 31.976562 162.527344 31.605469 162.375 C 31.230469 162.21875 30.878906 162.03125 30.542969 161.804688 C 30.207031 161.582031 29.898438 161.328125 29.613281 161.042969 C 29.328125 160.757812 29.074219 160.449219 28.851562 160.113281 C 28.625 159.777344 28.4375 159.425781 28.28125 159.050781 C 28.128906 158.679688 28.011719 158.296875 27.933594 157.902344 C 27.855469 157.503906 27.816406 157.105469 27.816406 156.703125 L 27.816406 150.566406 C 27.816406 150.164062 27.855469 149.761719 27.933594 149.367188 C 28.011719 148.972656 28.128906 148.589844 28.28125 148.21875 C 28.4375 147.84375 28.625 147.492188 28.851562 147.15625 C 29.074219 146.820312 29.328125 146.511719 29.613281 146.226562 C 29.898438 145.941406 30.207031 145.6875 30.542969 145.460938 C 30.878906 145.238281 31.230469 145.050781 31.605469 144.894531 C 31.976562 144.742188 32.359375 144.625 32.757812 144.546875 C 33.152344 144.46875 33.550781 144.429688 33.953125 144.429688 L 95.328125 144.429688 C 95.730469 144.429688 96.128906 144.46875 96.527344 144.546875 C 96.921875 144.625 97.304688 144.742188 97.675781 144.894531 C 98.050781 145.050781 98.402344 145.238281 98.738281 145.460938 C 99.074219 145.6875 99.382812 145.941406 99.667969 146.226562 C 99.953125 146.511719 100.207031 146.820312 100.429688 147.15625 C 100.65625 147.492188 100.84375 147.84375 101 148.21875 C 101.152344 148.589844 101.269531 148.972656 101.347656 149.367188 C 101.425781 149.761719 101.464844 150.164062 101.464844 150.566406 Z M 187.390625 340.828125 C 186.183594 340.828125 184.980469 340.796875 183.777344 340.738281 C 182.574219 340.679688 181.371094 340.589844 180.171875 340.472656 C 178.972656 340.355469 177.777344 340.207031 176.585938 340.03125 C 175.390625 339.855469 174.203125 339.648438 173.023438 339.414062 C 171.839844 339.179688 170.664062 338.914062 169.496094 338.621094 C 168.324219 338.328125 167.164062 338.007812 166.011719 337.65625 C 164.859375 337.308594 163.714844 336.929688 162.578125 336.523438 C 161.445312 336.117188 160.320312 335.683594 159.207031 335.222656 C 158.09375 334.761719 156.992188 334.273438 155.902344 333.757812 C 154.8125 333.242188 153.734375 332.699219 152.671875 332.132812 C 151.609375 331.5625 150.5625 330.96875 149.527344 330.351562 C 148.492188 329.730469 147.476562 329.085938 146.472656 328.414062 C 145.472656 327.746094 144.484375 327.050781 143.515625 326.335938 C 142.550781 325.617188 141.597656 324.875 140.667969 324.109375 C 139.734375 323.347656 138.824219 322.558594 137.929688 321.75 C 137.039062 320.941406 136.164062 320.109375 135.3125 319.257812 C 134.460938 318.40625 133.628906 317.53125 132.820312 316.636719 C 132.011719 315.746094 131.222656 314.832031 130.457031 313.902344 C 129.695312 312.96875 128.953125 312.019531 128.234375 311.050781 C 127.515625 310.082031 126.824219 309.097656 126.152344 308.097656 C 125.484375 307.09375 124.839844 306.074219 124.21875 305.042969 C 123.597656 304.007812 123.003906 302.960938 122.4375 301.898438 C 121.867188 300.832031 121.328125 299.757812 120.8125 298.667969 C 120.296875 297.578125 119.808594 296.476562 119.347656 295.363281 C 118.886719 294.25 118.453125 293.125 118.046875 291.988281 C 117.640625 290.855469 117.261719 289.710938 116.910156 288.558594 C 116.5625 287.402344 116.242188 286.242188 115.949219 285.074219 C 115.65625 283.90625 115.390625 282.730469 115.15625 281.546875 C 114.921875 280.363281 114.714844 279.175781 114.539062 277.984375 C 114.359375 276.792969 114.214844 275.597656 114.09375 274.398438 C 113.976562 273.199219 113.886719 271.996094 113.828125 270.792969 C 113.769531 269.589844 113.742188 268.382812 113.742188 267.179688 C 113.742188 265.972656 113.769531 264.769531 113.828125 263.5625 C 113.886719 262.359375 113.976562 261.160156 114.09375 259.960938 C 114.214844 258.757812 114.359375 257.5625 114.539062 256.371094 C 114.714844 255.179688 114.921875 253.992188 115.15625 252.808594 C 115.390625 251.628906 115.65625 250.453125 115.949219 249.28125 C 116.242188 248.113281 116.5625 246.953125 116.910156 245.796875 C 117.261719 244.644531 117.640625 243.5 118.046875 242.367188 C 118.453125 241.230469 118.886719 240.105469 119.347656 238.992188 C 119.808594 237.878906 120.296875 236.777344 120.8125 235.6875 C 121.328125 234.597656 121.867188 233.523438 122.4375 232.460938 C 123.003906 231.398438 123.597656 230.347656 124.21875 229.316406 C 124.839844 228.28125 125.484375 227.261719 126.152344 226.261719 C 126.824219 225.257812 127.515625 224.273438 128.234375 223.304688 C 128.953125 222.335938 129.695312 221.386719 130.457031 220.457031 C 131.222656 219.523438 132.011719 218.609375 132.820312 217.71875 C 133.628906 216.824219 134.460938 215.953125 135.3125 215.101562 C 136.164062 214.246094 137.039062 213.417969 137.929688 212.605469 C 138.824219 211.796875 139.734375 211.011719 140.667969 210.246094 C 141.597656 209.480469 142.550781 208.738281 143.515625 208.023438 C 144.484375 207.304688 145.472656 206.609375 146.472656 205.941406 C 147.476562 205.269531 148.492188 204.625 149.527344 204.007812 C 150.5625 203.386719 151.609375 202.792969 152.671875 202.226562 C 153.734375 201.65625 154.8125 201.113281 155.902344 200.597656 C 156.992188 200.085938 158.09375 199.597656 159.207031 199.132812 C 160.320312 198.671875 161.445312 198.238281 162.578125 197.832031 C 163.714844 197.425781 164.859375 197.050781 166.011719 196.699219 C 167.164062 196.351562 168.324219 196.027344 169.496094 195.734375 C 170.664062 195.441406 171.839844 195.179688 173.023438 194.945312 C 174.203125 194.707031 175.390625 194.503906 176.585938 194.324219 C 177.777344 194.148438 178.972656 194 180.171875 193.882812 C 181.371094 193.765625 182.574219 193.675781 183.777344 193.617188 C 184.980469 193.558594 186.183594 193.527344 187.390625 193.527344 C 188.597656 193.527344 189.800781 193.558594 191.003906 193.617188 C 192.207031 193.675781 193.410156 193.765625 194.609375 193.882812 C 195.808594 194 197.003906 194.148438 198.199219 194.324219 C 199.390625 194.503906 200.578125 194.707031 201.757812 194.945312 C 202.941406 195.179688 204.117188 195.441406 205.285156 195.734375 C 206.457031 196.027344 207.617188 196.351562 208.769531 196.699219 C 209.921875 197.050781 211.066406 197.425781 212.203125 197.832031 C 213.335938 198.238281 214.460938 198.671875 215.574219 199.132812 C 216.6875 199.597656 217.789062 200.085938 218.878906 200.597656 C 219.96875 201.113281 221.046875 201.65625 222.109375 202.226562 C 223.171875 202.792969 224.21875 203.386719 225.253906 204.007812 C 226.289062 204.625 227.304688 205.269531 228.308594 205.941406 C 229.3125 206.609375 230.296875 207.304688 231.265625 208.023438 C 232.230469 208.738281 233.183594 209.480469 234.113281 210.246094 C 235.046875 211.011719 235.957031 211.796875 236.851562 212.605469 C 237.746094 213.417969 238.617188 214.246094 239.46875 215.101562 C 240.320312 215.953125 241.152344 216.824219 241.960938 217.71875 C 242.769531 218.609375 243.558594 219.523438 244.324219 220.457031 C 245.085938 221.386719 245.828125 222.335938 246.546875 223.304688 C 247.265625 224.273438 247.957031 225.257812 248.628906 226.261719 C 249.296875 227.261719 249.941406 228.28125 250.5625 229.316406 C 251.183594 230.347656 251.777344 231.398438 252.34375 232.460938 C 252.914062 233.523438 253.453125 234.597656 253.96875 235.6875 C 254.484375 236.777344 254.972656 237.878906 255.433594 238.992188 C 255.894531 240.105469 256.328125 241.230469 256.734375 242.367188 C 257.140625 243.5 257.519531 244.644531 257.871094 245.796875 C 258.21875 246.953125 258.539062 248.113281 258.832031 249.28125 C 259.125 250.453125 259.390625 251.628906 259.625 252.808594 C 259.859375 253.992188 260.066406 255.179688 260.242188 256.371094 C 260.421875 257.5625 260.566406 258.757812 260.6875 259.960938 C 260.804688 261.160156 260.894531 262.359375 260.953125 263.5625 C 261.011719 264.769531 261.039062 265.972656 261.039062 267.179688 C 261.039062 268.382812 261.011719 269.589844 260.953125 270.792969 C 260.894531 271.996094 260.804688 273.199219 260.6875 274.398438 C 260.566406 275.597656 260.421875 276.792969 260.242188 277.984375 C 260.066406 279.175781 259.859375 280.363281 259.625 281.546875 C 259.390625 282.730469 259.125 283.90625 258.832031 285.074219 C 258.539062 286.242188 258.21875 287.402344 257.871094 288.558594 C 257.519531 289.710938 257.140625 290.855469 256.734375 291.988281 C 256.328125 293.125 255.894531 294.25 255.433594 295.363281 C 254.972656 296.476562 254.484375 297.578125 253.96875 298.667969 C 253.453125 299.757812 252.914062 300.832031 252.34375 301.898438 C 251.777344 302.960938 251.183594 304.007812 250.5625 305.042969 C 249.941406 306.074219 249.296875 307.09375 248.628906 308.097656 C 247.957031 309.097656 247.265625 310.082031 246.546875 311.050781 C 245.828125 312.019531 245.085938 312.96875 244.324219 313.902344 C 243.558594 314.832031 242.769531 315.746094 241.960938 316.636719 C 241.152344 317.53125 240.320312 318.40625 239.46875 319.257812 C 238.617188 320.109375 237.746094 320.941406 236.851562 321.75 C 235.957031 322.558594 235.046875 323.347656 234.113281 324.109375 C 233.183594 324.875 232.230469 325.617188 231.265625 326.335938 C 230.296875 327.050781 229.3125 327.746094 228.308594 328.414062 C 227.304688 329.085938 226.289062 329.730469 225.253906 330.351562 C 224.21875 330.96875 223.171875 331.5625 222.109375 332.132812 C 221.046875 332.699219 219.96875 333.242188 218.878906 333.757812 C 217.789062 334.273438 216.6875 334.761719 215.574219 335.222656 C 214.460938 335.683594 213.335938 336.117188 212.203125 336.523438 C 211.066406 336.929688 209.921875 337.308594 208.769531 337.65625 C 207.617188 338.007812 206.457031 338.328125 205.285156 338.621094 C 204.117188 338.914062 202.941406 339.179688 201.757812 339.414062 C 200.578125 339.648438 199.390625 339.855469 198.199219 340.03125 C 197.003906 340.207031 195.808594 340.355469 194.609375 340.472656 C 193.410156 340.589844 192.207031 340.679688 191.003906 340.738281 C 189.800781 340.796875 188.597656 340.828125 187.390625 340.828125 Z M 297.867188 162.839844 L 132.152344 162.839844 C 131.75 162.839844 131.351562 162.800781 130.957031 162.722656 C 130.5625 162.644531 130.175781 162.527344 129.804688 162.375 C 129.433594 162.21875 129.078125 162.03125 128.742188 161.804688 C 128.410156 161.582031 128.097656 161.328125 127.8125 161.042969 C 127.527344 160.757812 127.273438 160.449219 127.050781 160.113281 C 126.828125 159.777344 126.636719 159.425781 126.484375 159.050781 C 126.328125 158.679688 126.210938 158.296875 126.132812 157.902344 C 126.054688 157.503906 126.015625 157.105469 126.015625 156.703125 L 126.015625 138.289062 C 126.015625 137.6875 125.984375 137.085938 125.925781 136.484375 C 125.867188 135.886719 125.78125 135.289062 125.660156 134.699219 C 125.542969 134.105469 125.398438 133.523438 125.222656 132.945312 C 125.046875 132.367188 124.84375 131.800781 124.613281 131.246094 C 124.382812 130.6875 124.125 130.144531 123.839844 129.609375 C 123.558594 129.078125 123.246094 128.5625 122.914062 128.0625 C 122.578125 127.558594 122.21875 127.074219 121.835938 126.609375 C 121.453125 126.144531 121.050781 125.699219 120.621094 125.269531 C 120.195312 124.84375 119.75 124.441406 119.285156 124.058594 C 118.816406 123.675781 118.335938 123.316406 117.832031 122.980469 C 117.332031 122.644531 116.816406 122.335938 116.28125 122.050781 C 115.75 121.769531 115.207031 121.511719 114.648438 121.28125 C 114.09375 121.050781 113.523438 120.847656 112.949219 120.671875 C 112.371094 120.496094 111.785156 120.351562 111.195312 120.230469 C 110.605469 120.113281 110.007812 120.027344 109.40625 119.96875 C 108.808594 119.90625 108.207031 119.878906 107.601562 119.878906 L 101.464844 119.878906 L 101.464844 64.640625 C 101.464844 64.238281 101.503906 63.839844 101.582031 63.445312 C 101.664062 63.046875 101.777344 62.664062 101.933594 62.292969 C 102.085938 61.917969 102.277344 61.566406 102.5 61.230469 C 102.722656 60.894531 102.976562 60.585938 103.261719 60.300781 C 103.546875 60.015625 103.859375 59.761719 104.195312 59.539062 C 104.527344 59.3125 104.882812 59.125 105.253906 58.96875 C 105.625 58.816406 106.011719 58.699219 106.40625 58.621094 C 106.800781 58.542969 107.199219 58.503906 107.601562 58.503906 L 291.726562 58.503906 C 292.132812 58.503906 292.53125 58.542969 292.925781 58.621094 C 293.320312 58.699219 293.703125 58.816406 294.078125 58.96875 C 294.449219 59.125 294.804688 59.3125 295.136719 59.539062 C 295.472656 59.761719 295.78125 60.015625 296.066406 60.300781 C 296.351562 60.585938 296.609375 60.894531 296.832031 61.230469 C 297.054688 61.566406 297.246094 61.917969 297.398438 62.292969 C 297.550781 62.664062 297.667969 63.046875 297.746094 63.445312 C 297.828125 63.839844 297.867188 64.238281 297.867188 64.640625 Z M 340.828125 162.839844 L 310.140625 162.839844 L 310.140625 64.640625 C 310.140625 64.039062 310.109375 63.4375 310.050781 62.835938 C 309.992188 62.234375 309.90625 61.640625 309.785156 61.046875 C 309.667969 60.457031 309.523438 59.871094 309.347656 59.296875 C 309.171875 58.71875 308.96875 58.152344 308.738281 57.59375 C 308.507812 57.039062 308.25 56.492188 307.964844 55.960938 C 307.683594 55.429688 307.371094 54.914062 307.039062 54.410156 C 306.703125 53.910156 306.34375 53.425781 305.960938 52.960938 C 305.578125 52.492188 305.175781 52.046875 304.746094 51.621094 C 304.320312 51.195312 303.875 50.789062 303.410156 50.40625 C 302.941406 50.023438 302.460938 49.667969 301.957031 49.332031 C 301.457031 48.996094 300.941406 48.6875 300.40625 48.402344 C 299.875 48.117188 299.332031 47.859375 298.773438 47.628906 C 298.21875 47.398438 297.648438 47.195312 297.074219 47.019531 C 296.496094 46.847656 295.910156 46.699219 295.320312 46.582031 C 294.730469 46.464844 294.132812 46.375 293.53125 46.316406 C 292.933594 46.257812 292.332031 46.226562 291.726562 46.226562 L 175.117188 46.226562 L 175.117188 21.679688 C 175.117188 21.273438 175.15625 20.875 175.234375 20.480469 C 175.3125 20.085938 175.429688 19.703125 175.582031 19.328125 C 175.738281 18.957031 175.925781 18.605469 176.148438 18.269531 C 176.375 17.933594 176.628906 17.625 176.914062 17.339844 C 177.199219 17.054688 177.507812 16.800781 177.84375 16.574219 C 178.179688 16.351562 178.53125 16.164062 178.90625 16.007812 C 179.277344 15.855469 179.660156 15.738281 180.054688 15.660156 C 180.449219 15.578125 180.851562 15.539062 181.253906 15.539062 L 334.691406 15.539062 C 335.09375 15.539062 335.492188 15.578125 335.886719 15.660156 C 336.285156 15.738281 336.667969 15.855469 337.039062 16.007812 C 337.410156 16.164062 337.765625 16.351562 338.101562 16.574219 C 338.4375 16.800781 338.746094 17.054688 339.03125 17.339844 C 339.316406 17.625 339.570312 17.933594 339.792969 18.269531 C 340.019531 18.605469 340.207031 18.957031 340.359375 19.328125 C 340.515625 19.703125 340.632812 20.085938 340.710938 20.480469 C 340.789062 20.875 340.828125 21.273438 340.828125 21.679688 Z M 340.828125 162.839844 " fill-opacity="1" fill-rule="nonzero"/></g><path fill="#599474" d="M 205.804688 83.054688 L 132.152344 83.054688 C 131.75 83.054688 131.351562 83.09375 130.957031 83.171875 C 130.5625 83.25 130.175781 83.367188 129.804688 83.519531 C 129.433594 83.675781 129.078125 83.863281 128.742188 84.085938 C 128.410156 84.3125 128.097656 84.566406 127.8125 84.851562 C 127.527344 85.136719 127.273438 85.445312 127.050781 85.78125 C 126.828125 86.117188 126.636719 86.46875 126.484375 86.84375 C 126.328125 87.214844 126.210938 87.597656 126.132812 87.992188 C 126.054688 88.386719 126.015625 88.789062 126.015625 89.191406 C 126.015625 89.59375 126.054688 89.992188 126.132812 90.386719 C 126.210938 90.785156 126.328125 91.167969 126.484375 91.539062 C 126.636719 91.910156 126.828125 92.265625 127.050781 92.601562 C 127.273438 92.9375 127.527344 93.246094 127.8125 93.53125 C 128.097656 93.816406 128.410156 94.070312 128.742188 94.292969 C 129.078125 94.519531 129.433594 94.707031 129.804688 94.859375 C 130.175781 95.015625 130.5625 95.132812 130.957031 95.210938 C 131.351562 95.289062 131.75 95.328125 132.152344 95.328125 L 205.804688 95.328125 C 206.207031 95.328125 206.605469 95.289062 207 95.210938 C 207.394531 95.132812 207.78125 95.015625 208.152344 94.859375 C 208.523438 94.707031 208.878906 94.519531 209.214844 94.292969 C 209.546875 94.070312 209.859375 93.816406 210.144531 93.53125 C 210.429688 93.246094 210.683594 92.9375 210.90625 92.601562 C 211.128906 92.265625 211.320312 91.910156 211.472656 91.539062 C 211.628906 91.167969 211.746094 90.785156 211.824219 90.386719 C 211.902344 89.992188 211.941406 89.59375 211.941406 89.191406 C 211.941406 88.789062 211.902344 88.386719 211.824219 87.992188 C 211.746094 87.597656 211.628906 87.214844 211.472656 86.84375 C 211.320312 86.46875 211.128906 86.117188 210.90625 85.78125 C 210.683594 85.445312 210.429688 85.136719 210.144531 84.851562 C 209.859375 84.566406 209.546875 84.3125 209.214844 84.085938 C 208.878906 83.863281 208.523438 83.675781 208.152344 83.519531 C 207.78125 83.367188 207.394531 83.25 207 83.171875 C 206.605469 83.09375 206.207031 83.054688 205.804688 83.054688 Z M 205.804688 83.054688 " fill-opacity="1" fill-rule="nonzero"/><path fill="#599474" d="M 205.804688 107.601562 L 132.152344 107.601562 C 131.75 107.601562 131.351562 107.640625 130.957031 107.722656 C 130.5625 107.800781 130.175781 107.917969 129.804688 108.070312 C 129.433594 108.226562 129.078125 108.414062 128.742188 108.636719 C 128.410156 108.863281 128.097656 109.117188 127.8125 109.402344 C 127.527344 109.6875 127.273438 109.996094 127.050781 110.332031 C 126.828125 110.664062 126.636719 111.019531 126.484375 111.390625 C 126.328125 111.765625 126.210938 112.148438 126.132812 112.542969 C 126.054688 112.9375 126.015625 113.335938 126.015625 113.742188 C 126.015625 114.144531 126.054688 114.542969 126.132812 114.9375 C 126.210938 115.332031 126.328125 115.71875 126.484375 116.089844 C 126.636719 116.460938 126.828125 116.816406 127.050781 117.152344 C 127.273438 117.484375 127.527344 117.796875 127.8125 118.082031 C 128.097656 118.367188 128.410156 118.621094 128.742188 118.84375 C 129.078125 119.066406 129.433594 119.257812 129.804688 119.410156 C 130.175781 119.566406 130.5625 119.683594 130.957031 119.761719 C 131.351562 119.839844 131.75 119.878906 132.152344 119.878906 L 205.804688 119.878906 C 206.207031 119.878906 206.605469 119.839844 207 119.761719 C 207.394531 119.683594 207.78125 119.566406 208.152344 119.410156 C 208.523438 119.257812 208.878906 119.066406 209.214844 118.84375 C 209.546875 118.621094 209.859375 118.367188 210.144531 118.082031 C 210.429688 117.796875 210.683594 117.484375 210.90625 117.152344 C 211.128906 116.816406 211.320312 116.460938 211.472656 116.089844 C 211.628906 115.71875 211.746094 115.332031 211.824219 114.9375 C 211.902344 114.542969 211.941406 114.144531 211.941406 113.742188 C 211.941406 113.335938 211.902344 112.9375 211.824219 112.542969 C 211.746094 112.148438 211.628906 111.765625 211.472656 111.390625 C 211.320312 111.019531 211.128906 110.664062 210.90625 110.332031 C 210.683594 109.996094 210.429688 109.6875 210.144531 109.402344 C 209.859375 109.117188 209.546875 108.863281 209.214844 108.636719 C 208.878906 108.414062 208.523438 108.226562 208.152344 108.070312 C 207.78125 107.917969 207.394531 107.800781 207 107.722656 C 206.605469 107.640625 206.207031 107.601562 205.804688 107.601562 Z M 205.804688 107.601562 " fill-opacity="1" fill-rule="nonzero"/><path fill="#599474" d="M 132.152344 144.429688 L 205.804688 144.429688 C 206.207031 144.429688 206.605469 144.390625 207 144.308594 C 207.394531 144.230469 207.78125 144.117188 208.152344 143.960938 C 208.523438 143.808594 208.878906 143.617188 209.214844 143.394531 C 209.546875 143.171875 209.859375 142.914062 210.144531 142.628906 C 210.429688 142.34375 210.683594 142.035156 210.90625 141.699219 C 211.128906 141.367188 211.320312 141.011719 211.472656 140.640625 C 211.628906 140.265625 211.746094 139.882812 211.824219 139.488281 C 211.902344 139.09375 211.941406 138.695312 211.941406 138.289062 C 211.941406 137.886719 211.902344 137.488281 211.824219 137.09375 C 211.746094 136.699219 211.628906 136.3125 211.472656 135.941406 C 211.320312 135.570312 211.128906 135.214844 210.90625 134.882812 C 210.683594 134.546875 210.429688 134.234375 210.144531 133.949219 C 209.859375 133.664062 209.546875 133.410156 209.214844 133.1875 C 208.878906 132.964844 208.523438 132.773438 208.152344 132.621094 C 207.78125 132.464844 207.394531 132.351562 207 132.269531 C 206.605469 132.191406 206.207031 132.152344 205.804688 132.152344 L 132.152344 132.152344 C 131.75 132.152344 131.351562 132.191406 130.957031 132.269531 C 130.5625 132.351562 130.175781 132.464844 129.804688 132.621094 C 129.433594 132.773438 129.078125 132.964844 128.742188 133.1875 C 128.410156 133.410156 128.097656 133.664062 127.8125 133.949219 C 127.527344 134.234375 127.273438 134.546875 127.050781 134.882812 C 126.828125 135.214844 126.636719 135.570312 126.484375 135.941406 C 126.328125 136.3125 126.210938 136.699219 126.132812 137.09375 C 126.054688 137.488281 126.015625 137.886719 126.015625 138.289062 C 126.015625 138.695312 126.054688 139.09375 126.132812 139.488281 C 126.210938 139.882812 126.328125 140.265625 126.484375 140.640625 C 126.636719 141.011719 126.828125 141.367188 127.050781 141.699219 C 127.273438 142.035156 127.527344 142.34375 127.8125 142.628906 C 128.097656 142.914062 128.410156 143.171875 128.742188 143.394531 C 129.078125 143.617188 129.433594 143.808594 129.804688 143.960938 C 130.175781 144.117188 130.5625 144.230469 130.957031 144.308594 C 131.351562 144.390625 131.75 144.429688 132.152344 144.429688 Z M 132.152344 144.429688 " fill-opacity="1" fill-rule="nonzero"/><path fill="#599474" d="M 268.976562 84.851562 L 226.015625 127.8125 C 225.722656 128.097656 225.457031 128.40625 225.226562 128.742188 C 224.996094 129.078125 224.800781 129.433594 224.636719 129.804688 C 224.476562 130.179688 224.355469 130.566406 224.273438 130.964844 C 224.1875 131.363281 224.144531 131.769531 224.140625 132.175781 C 224.136719 132.582031 224.171875 132.988281 224.25 133.386719 C 224.328125 133.785156 224.441406 134.175781 224.597656 134.550781 C 224.75 134.929688 224.941406 135.289062 225.167969 135.628906 C 225.394531 135.964844 225.648438 136.28125 225.9375 136.570312 C 226.226562 136.855469 226.539062 137.113281 226.878906 137.339844 C 227.21875 137.566406 227.578125 137.753906 227.953125 137.910156 C 228.332031 138.0625 228.71875 138.179688 229.121094 138.253906 C 229.519531 138.332031 229.921875 138.371094 230.332031 138.367188 C 230.738281 138.363281 231.140625 138.320312 231.539062 138.234375 C 231.9375 138.152344 232.324219 138.027344 232.699219 137.867188 C 233.074219 137.707031 233.429688 137.511719 233.765625 137.28125 C 234.101562 137.046875 234.410156 136.785156 234.691406 136.492188 L 277.65625 93.53125 C 277.933594 93.242188 278.179688 92.933594 278.394531 92.597656 C 278.609375 92.261719 278.792969 91.910156 278.941406 91.539062 C 279.089844 91.171875 279.199219 90.789062 279.273438 90.398438 C 279.347656 90.007812 279.382812 89.609375 279.378906 89.210938 C 279.375 88.8125 279.332031 88.417969 279.253906 88.03125 C 279.171875 87.640625 279.054688 87.261719 278.902344 86.894531 C 278.746094 86.523438 278.558594 86.175781 278.335938 85.84375 C 278.113281 85.515625 277.863281 85.207031 277.582031 84.925781 C 277.296875 84.644531 276.992188 84.390625 276.660156 84.171875 C 276.332031 83.949219 275.980469 83.761719 275.613281 83.605469 C 275.246094 83.453125 274.867188 83.335938 274.476562 83.253906 C 274.085938 83.175781 273.691406 83.132812 273.292969 83.128906 C 272.894531 83.125 272.5 83.160156 272.109375 83.234375 C 271.714844 83.308594 271.335938 83.417969 270.964844 83.566406 C 270.59375 83.714844 270.242188 83.894531 269.910156 84.113281 C 269.574219 84.328125 269.261719 84.574219 268.976562 84.851562 Z M 268.976562 84.851562 " fill-opacity="1" fill-rule="nonzero"/><path fill="#599474" d="M 279.453125 126.015625 C 279.453125 126.820312 279.375 127.621094 279.21875 128.410156 C 279.058594 129.199219 278.828125 129.96875 278.519531 130.714844 C 278.210938 131.457031 277.832031 132.164062 277.382812 132.835938 C 276.9375 133.503906 276.429688 134.125 275.859375 134.695312 C 275.289062 135.265625 274.667969 135.773438 273.996094 136.222656 C 273.328125 136.667969 272.621094 137.046875 271.875 137.355469 C 271.132812 137.664062 270.363281 137.898438 269.574219 138.054688 C 268.78125 138.210938 267.984375 138.289062 267.179688 138.289062 C 266.371094 138.289062 265.574219 138.210938 264.785156 138.054688 C 263.992188 137.898438 263.226562 137.664062 262.480469 137.355469 C 261.734375 137.046875 261.027344 136.667969 260.359375 136.222656 C 259.6875 135.773438 259.070312 135.265625 258.5 134.695312 C 257.929688 134.125 257.417969 133.503906 256.972656 132.835938 C 256.523438 132.164062 256.144531 131.457031 255.835938 130.714844 C 255.527344 129.96875 255.296875 129.199219 255.140625 128.410156 C 254.980469 127.621094 254.902344 126.820312 254.902344 126.015625 C 254.902344 125.210938 254.980469 124.410156 255.140625 123.621094 C 255.296875 122.832031 255.527344 122.0625 255.835938 121.316406 C 256.144531 120.574219 256.523438 119.867188 256.972656 119.195312 C 257.417969 118.527344 257.929688 117.90625 258.5 117.335938 C 259.070312 116.765625 259.6875 116.257812 260.359375 115.808594 C 261.027344 115.363281 261.734375 114.984375 262.480469 114.675781 C 263.226562 114.367188 263.992188 114.132812 264.785156 113.976562 C 265.574219 113.820312 266.371094 113.742188 267.179688 113.742188 C 267.984375 113.742188 268.78125 113.820312 269.574219 113.976562 C 270.363281 114.132812 271.132812 114.367188 271.875 114.675781 C 272.621094 114.984375 273.328125 115.363281 273.996094 115.808594 C 274.667969 116.257812 275.289062 116.765625 275.859375 117.335938 C 276.429688 117.90625 276.9375 118.527344 277.382812 119.195312 C 277.832031 119.867188 278.210938 120.574219 278.519531 121.316406 C 278.828125 122.0625 279.058594 122.832031 279.21875 123.621094 C 279.375 124.410156 279.453125 125.210938 279.453125 126.015625 Z M 279.453125 126.015625 " fill-opacity="1" fill-rule="nonzero"/><path fill="#599474" d="M 248.765625 95.328125 C 248.765625 96.132812 248.6875 96.933594 248.53125 97.722656 C 248.371094 98.511719 248.140625 99.28125 247.832031 100.027344 C 247.523438 100.769531 247.144531 101.476562 246.695312 102.148438 C 246.25 102.816406 245.742188 103.4375 245.171875 104.007812 C 244.601562 104.578125 243.980469 105.085938 243.308594 105.535156 C 242.640625 105.980469 241.933594 106.359375 241.1875 106.667969 C 240.445312 106.976562 239.675781 107.210938 238.886719 107.367188 C 238.09375 107.523438 237.296875 107.601562 236.492188 107.601562 C 235.683594 107.601562 234.886719 107.523438 234.097656 107.367188 C 233.304688 107.210938 232.539062 106.976562 231.792969 106.667969 C 231.046875 106.359375 230.339844 105.980469 229.671875 105.535156 C 229 105.085938 228.382812 104.578125 227.8125 104.007812 C 227.242188 103.4375 226.730469 102.816406 226.285156 102.148438 C 225.835938 101.476562 225.457031 100.769531 225.148438 100.027344 C 224.839844 99.28125 224.609375 98.511719 224.453125 97.722656 C 224.292969 96.933594 224.214844 96.132812 224.214844 95.328125 C 224.214844 94.523438 224.292969 93.722656 224.453125 92.933594 C 224.609375 92.144531 224.839844 91.375 225.148438 90.628906 C 225.457031 89.886719 225.835938 89.179688 226.285156 88.507812 C 226.730469 87.839844 227.242188 87.21875 227.8125 86.648438 C 228.382812 86.078125 229 85.570312 229.671875 85.121094 C 230.339844 84.675781 231.046875 84.296875 231.792969 83.988281 C 232.539062 83.679688 233.304688 83.445312 234.097656 83.289062 C 234.886719 83.132812 235.683594 83.054688 236.492188 83.054688 C 237.296875 83.054688 238.09375 83.132812 238.886719 83.289062 C 239.675781 83.445312 240.445312 83.679688 241.1875 83.988281 C 241.933594 84.296875 242.640625 84.675781 243.308594 85.121094 C 243.980469 85.570312 244.601562 86.078125 245.171875 86.648438 C 245.742188 87.21875 246.25 87.839844 246.695312 88.507812 C 247.144531 89.179688 247.523438 89.886719 247.832031 90.628906 C 248.140625 91.375 248.371094 92.144531 248.53125 92.933594 C 248.6875 93.722656 248.765625 94.523438 248.765625 95.328125 Z M 248.765625 95.328125 " fill-opacity="1" fill-rule="nonzero"/><path fill="#599474" d="M 187.390625 236.492188 C 188.195312 236.492188 188.996094 236.570312 189.785156 236.726562 C 190.574219 236.882812 191.34375 237.117188 192.089844 237.425781 C 192.832031 237.734375 193.539062 238.113281 194.210938 238.558594 C 194.878906 239.007812 195.5 239.515625 196.070312 240.085938 C 196.640625 240.65625 197.148438 241.277344 197.597656 241.945312 C 198.042969 242.617188 198.421875 243.324219 198.730469 244.066406 C 199.039062 244.8125 199.273438 245.582031 199.429688 246.371094 C 199.585938 247.160156 199.664062 247.960938 199.664062 248.765625 C 199.664062 249.167969 199.703125 249.566406 199.785156 249.964844 C 199.863281 250.359375 199.980469 250.742188 200.132812 251.113281 C 200.289062 251.488281 200.476562 251.839844 200.699219 252.175781 C 200.925781 252.511719 201.179688 252.820312 201.464844 253.105469 C 201.75 253.390625 202.058594 253.644531 202.394531 253.867188 C 202.726562 254.09375 203.082031 254.28125 203.453125 254.4375 C 203.828125 254.589844 204.210938 254.707031 204.605469 254.785156 C 205 254.863281 205.398438 254.902344 205.804688 254.902344 C 206.207031 254.902344 206.605469 254.863281 207 254.785156 C 207.394531 254.707031 207.78125 254.589844 208.152344 254.4375 C 208.523438 254.28125 208.878906 254.09375 209.214844 253.867188 C 209.546875 253.644531 209.859375 253.390625 210.144531 253.105469 C 210.429688 252.820312 210.683594 252.511719 210.90625 252.175781 C 211.128906 251.839844 211.320312 251.488281 211.472656 251.113281 C 211.628906 250.742188 211.746094 250.359375 211.824219 249.964844 C 211.902344 249.566406 211.941406 249.167969 211.941406 248.765625 C 211.9375 247.417969 211.820312 246.082031 211.59375 244.75 C 211.371094 243.421875 211.039062 242.121094 210.597656 240.847656 C 210.15625 239.574219 209.617188 238.34375 208.976562 237.160156 C 208.332031 235.976562 207.597656 234.851562 206.769531 233.789062 C 205.945312 232.722656 205.035156 231.734375 204.046875 230.820312 C 203.054688 229.90625 201.996094 229.078125 200.871094 228.339844 C 199.746094 227.601562 198.566406 226.957031 197.332031 226.410156 C 196.101562 225.867188 194.832031 225.425781 193.527344 225.085938 L 193.527344 218.078125 C 193.527344 217.675781 193.488281 217.277344 193.410156 216.878906 C 193.332031 216.484375 193.214844 216.101562 193.0625 215.730469 C 192.90625 215.355469 192.71875 215.003906 192.492188 214.667969 C 192.269531 214.332031 192.015625 214.023438 191.730469 213.738281 C 191.445312 213.453125 191.136719 213.199219 190.800781 212.976562 C 190.464844 212.75 190.113281 212.5625 189.738281 212.40625 C 189.367188 212.253906 188.984375 212.136719 188.589844 212.058594 C 188.191406 211.980469 187.792969 211.941406 187.390625 211.941406 C 186.988281 211.941406 186.589844 211.980469 186.195312 212.058594 C 185.796875 212.136719 185.414062 212.253906 185.042969 212.40625 C 184.667969 212.5625 184.316406 212.75 183.980469 212.976562 C 183.644531 213.199219 183.335938 213.453125 183.050781 213.738281 C 182.765625 214.023438 182.511719 214.332031 182.289062 214.667969 C 182.0625 215.003906 181.875 215.355469 181.71875 215.730469 C 181.566406 216.101562 181.449219 216.484375 181.371094 216.878906 C 181.292969 217.277344 181.253906 217.675781 181.253906 218.078125 L 181.253906 225.085938 C 180.539062 225.269531 179.832031 225.488281 179.136719 225.734375 C 178.441406 225.984375 177.757812 226.261719 177.089844 226.570312 C 176.417969 226.878906 175.761719 227.21875 175.125 227.589844 C 174.484375 227.957031 173.863281 228.355469 173.257812 228.777344 C 172.65625 229.203125 172.070312 229.65625 171.507812 230.132812 C 170.945312 230.609375 170.40625 231.113281 169.886719 231.640625 C 169.371094 232.164062 168.878906 232.714844 168.410156 233.285156 C 167.941406 233.855469 167.5 234.449219 167.085938 235.058594 C 166.671875 235.667969 166.285156 236.296875 165.925781 236.945312 C 165.570312 237.589844 165.242188 238.25 164.945312 238.925781 C 164.644531 239.601562 164.378906 240.289062 164.144531 240.988281 C 163.90625 241.6875 163.703125 242.398438 163.53125 243.113281 C 163.359375 243.832031 163.222656 244.558594 163.113281 245.289062 C 163.007812 246.019531 162.933594 246.753906 162.894531 247.488281 C 162.855469 248.226562 162.847656 248.964844 162.875 249.703125 C 162.902344 250.441406 162.960938 251.175781 163.054688 251.90625 C 163.148438 252.640625 163.273438 253.367188 163.433594 254.089844 C 163.59375 254.808594 163.785156 255.519531 164.007812 256.226562 C 164.230469 256.929688 164.484375 257.621094 164.769531 258.300781 C 165.054688 258.984375 165.371094 259.648438 165.71875 260.300781 C 166.066406 260.953125 166.441406 261.589844 166.84375 262.207031 C 167.246094 262.824219 167.675781 263.425781 168.136719 264.003906 C 168.59375 264.582031 169.074219 265.140625 169.582031 265.675781 C 170.089844 266.210938 170.621094 266.722656 171.175781 267.210938 C 171.730469 267.699219 172.308594 268.160156 172.902344 268.597656 C 173.5 269.03125 174.113281 269.4375 174.746094 269.820312 C 175.378906 270.199219 176.027344 270.550781 176.691406 270.871094 C 177.359375 271.191406 178.035156 271.484375 178.726562 271.746094 C 179.417969 272.003906 180.117188 272.234375 180.832031 272.429688 C 181.542969 272.625 182.261719 272.789062 182.988281 272.921875 C 183.714844 273.054688 184.445312 273.152344 185.179688 273.21875 C 185.914062 273.285156 186.652344 273.316406 187.390625 273.316406 C 188.195312 273.316406 188.996094 273.394531 189.785156 273.550781 C 190.574219 273.707031 191.34375 273.941406 192.089844 274.25 C 192.832031 274.558594 193.539062 274.9375 194.210938 275.382812 C 194.878906 275.832031 195.5 276.339844 196.070312 276.910156 C 196.640625 277.480469 197.148438 278.101562 197.597656 278.769531 C 198.042969 279.441406 198.421875 280.148438 198.730469 280.894531 C 199.039062 281.636719 199.273438 282.40625 199.429688 283.195312 C 199.585938 283.988281 199.664062 284.785156 199.664062 285.589844 C 199.664062 286.398438 199.585938 287.195312 199.429688 287.984375 C 199.273438 288.777344 199.039062 289.542969 198.730469 290.289062 C 198.421875 291.03125 198.042969 291.738281 197.597656 292.410156 C 197.148438 293.082031 196.640625 293.699219 196.070312 294.269531 C 195.5 294.839844 194.878906 295.347656 194.210938 295.796875 C 193.539062 296.246094 192.832031 296.621094 192.089844 296.929688 C 191.34375 297.238281 190.574219 297.472656 189.785156 297.628906 C 188.996094 297.785156 188.195312 297.867188 187.390625 297.867188 C 186.585938 297.867188 185.785156 297.785156 184.996094 297.628906 C 184.207031 297.472656 183.4375 297.238281 182.691406 296.929688 C 181.949219 296.621094 181.242188 296.246094 180.570312 295.796875 C 179.902344 295.347656 179.28125 294.839844 178.710938 294.269531 C 178.140625 293.699219 177.632812 293.082031 177.183594 292.410156 C 176.738281 291.738281 176.359375 291.03125 176.050781 290.289062 C 175.742188 289.542969 175.507812 288.777344 175.351562 287.984375 C 175.195312 287.195312 175.117188 286.398438 175.117188 285.589844 C 175.117188 285.1875 175.078125 284.789062 174.996094 284.394531 C 174.917969 284 174.804688 283.613281 174.648438 283.242188 C 174.496094 282.871094 174.304688 282.515625 174.082031 282.179688 C 173.859375 281.847656 173.601562 281.535156 173.316406 281.25 C 173.03125 280.964844 172.722656 280.710938 172.386719 280.488281 C 172.054688 280.265625 171.699219 280.074219 171.328125 279.921875 C 170.953125 279.765625 170.570312 279.648438 170.175781 279.570312 C 169.78125 279.492188 169.382812 279.453125 168.976562 279.453125 C 168.574219 279.453125 168.175781 279.492188 167.78125 279.570312 C 167.386719 279.648438 167 279.765625 166.628906 279.921875 C 166.257812 280.074219 165.902344 280.261719 165.570312 280.488281 C 165.234375 280.710938 164.921875 280.964844 164.636719 281.25 C 164.351562 281.535156 164.097656 281.847656 163.875 282.179688 C 163.652344 282.515625 163.460938 282.871094 163.308594 283.242188 C 163.152344 283.613281 163.039062 284 162.957031 284.394531 C 162.878906 284.789062 162.839844 285.1875 162.839844 285.589844 C 162.847656 286.9375 162.960938 288.277344 163.1875 289.605469 C 163.410156 290.933594 163.746094 292.234375 164.183594 293.507812 C 164.625 294.78125 165.164062 296.011719 165.804688 297.195312 C 166.449219 298.382812 167.183594 299.503906 168.011719 300.570312 C 168.835938 301.632812 169.746094 302.621094 170.734375 303.535156 C 171.726562 304.449219 172.785156 305.277344 173.910156 306.015625 C 175.035156 306.757812 176.214844 307.398438 177.449219 307.945312 C 178.679688 308.492188 179.949219 308.933594 181.253906 309.269531 L 181.253906 316.277344 C 181.253906 316.679688 181.292969 317.082031 181.371094 317.476562 C 181.449219 317.871094 181.566406 318.253906 181.71875 318.625 C 181.875 319 182.0625 319.351562 182.289062 319.6875 C 182.511719 320.023438 182.765625 320.332031 183.050781 320.617188 C 183.335938 320.902344 183.644531 321.15625 183.980469 321.382812 C 184.316406 321.605469 184.667969 321.792969 185.042969 321.949219 C 185.414062 322.101562 185.796875 322.21875 186.195312 322.296875 C 186.589844 322.375 186.988281 322.414062 187.390625 322.414062 C 187.792969 322.414062 188.191406 322.375 188.589844 322.296875 C 188.984375 322.21875 189.367188 322.101562 189.738281 321.949219 C 190.113281 321.792969 190.464844 321.605469 190.800781 321.382812 C 191.136719 321.15625 191.445312 320.902344 191.730469 320.617188 C 192.015625 320.332031 192.269531 320.023438 192.492188 319.6875 C 192.71875 319.351562 192.90625 319 193.0625 318.625 C 193.214844 318.253906 193.332031 317.871094 193.410156 317.476562 C 193.488281 317.082031 193.527344 316.679688 193.527344 316.277344 L 193.527344 309.269531 C 194.242188 309.085938 194.949219 308.871094 195.644531 308.621094 C 196.339844 308.375 197.023438 308.09375 197.691406 307.785156 C 198.363281 307.476562 199.019531 307.136719 199.65625 306.769531 C 200.296875 306.398438 200.917969 306.003906 201.523438 305.578125 C 202.125 305.152344 202.710938 304.703125 203.273438 304.222656 C 203.835938 303.746094 204.375 303.242188 204.894531 302.71875 C 205.410156 302.191406 205.902344 301.640625 206.371094 301.070312 C 206.839844 300.5 207.28125 299.910156 207.695312 299.296875 C 208.109375 298.6875 208.496094 298.058594 208.855469 297.414062 C 209.210938 296.765625 209.539062 296.105469 209.835938 295.429688 C 210.136719 294.753906 210.402344 294.066406 210.636719 293.367188 C 210.875 292.667969 211.078125 291.960938 211.25 291.242188 C 211.421875 290.523438 211.5625 289.800781 211.667969 289.066406 C 211.773438 288.335938 211.847656 287.605469 211.886719 286.867188 C 211.925781 286.128906 211.933594 285.390625 211.90625 284.652344 C 211.878906 283.917969 211.820312 283.179688 211.726562 282.449219 C 211.632812 281.714844 211.507812 280.988281 211.347656 280.269531 C 211.1875 279.546875 210.996094 278.835938 210.773438 278.132812 C 210.550781 277.425781 210.296875 276.734375 210.011719 276.054688 C 209.726562 275.375 209.410156 274.707031 209.0625 274.054688 C 208.714844 273.402344 208.34375 272.769531 207.9375 272.148438 C 207.535156 271.53125 207.105469 270.933594 206.644531 270.351562 C 206.1875 269.773438 205.707031 269.214844 205.199219 268.679688 C 204.691406 268.144531 204.160156 267.632812 203.605469 267.144531 C 203.050781 266.65625 202.472656 266.195312 201.878906 265.761719 C 201.28125 265.324219 200.667969 264.917969 200.035156 264.535156 C 199.402344 264.15625 198.753906 263.804688 198.089844 263.484375 C 197.421875 263.164062 196.746094 262.871094 196.054688 262.613281 C 195.363281 262.351562 194.664062 262.125 193.953125 261.925781 C 193.238281 261.730469 192.519531 261.566406 191.792969 261.433594 C 191.066406 261.300781 190.335938 261.203125 189.601562 261.136719 C 188.867188 261.070312 188.128906 261.039062 187.390625 261.039062 C 186.585938 261.039062 185.785156 260.960938 184.996094 260.804688 C 184.207031 260.648438 183.4375 260.414062 182.691406 260.105469 C 181.949219 259.796875 181.242188 259.417969 180.570312 258.972656 C 179.902344 258.523438 179.28125 258.015625 178.710938 257.445312 C 178.140625 256.875 177.632812 256.253906 177.183594 255.585938 C 176.738281 254.914062 176.359375 254.207031 176.050781 253.464844 C 175.742188 252.71875 175.507812 251.949219 175.351562 251.160156 C 175.195312 250.371094 175.117188 249.570312 175.117188 248.765625 C 175.117188 247.960938 175.195312 247.160156 175.351562 246.371094 C 175.507812 245.582031 175.742188 244.8125 176.050781 244.066406 C 176.359375 243.324219 176.738281 242.617188 177.183594 241.945312 C 177.632812 241.277344 178.140625 240.65625 178.710938 240.085938 C 179.28125 239.515625 179.902344 239.007812 180.570312 238.558594 C 181.242188 238.113281 181.949219 237.734375 182.691406 237.425781 C 183.4375 237.117188 184.207031 236.882812 184.996094 236.726562 C 185.785156 236.570312 186.585938 236.492188 187.390625 236.492188 Z M 187.390625 236.492188 " fill-opacity="1" fill-rule="nonzero"/></svg>